# Blender 4.0.2
# www.blender.org
mtllib mushroom.mtl
o 10
v 0.320180 1.583725 -0.725720
v 0.000000 1.795902 -0.475695
v 0.000000 1.519631 -0.847051
v 0.174696 0.015671 0.347276
v 0.206044 0.099191 0.656819
v 0.380935 0.099191 0.540366
v 0.248444 0.419374 0.787149
v 0.292043 0.424285 0.755859
v 0.219657 0.395982 0.740199
v 0.295140 0.436139 0.709677
v 0.143581 0.436139 0.759825
v 0.180439 0.424284 0.791486
v 0.577266 0.728741 0.445594
v 0.480950 0.520944 0.630296
v 0.450754 0.831641 0.617795
v 0.538724 0.099191 0.176369
v 0.468077 0.239429 0.609984
v 0.602015 0.239429 0.176368
v 0.653001 0.520944 0.172133
v -0.206044 0.099191 0.656819
v -0.174696 0.015671 0.347276
v -0.380935 0.099191 0.540366
v -0.292044 0.424285 0.755859
v -0.248444 0.419374 0.787149
v -0.219657 0.395982 0.740199
v -0.295140 0.436139 0.709677
v -0.180439 0.424284 0.791486
v -0.143581 0.436139 0.759825
v -0.480950 0.520944 0.630296
v -0.577266 0.728741 0.445594
v -0.450755 0.831641 0.617795
v -0.468078 0.239429 0.609984
v -0.538724 0.099191 0.176368
v -0.602015 0.239429 0.176368
v -0.653001 0.520944 0.172133
v -0.320180 1.583725 -0.725720
v -0.320180 1.882833 -0.159508
v 0.000000 1.946928 -0.038177
v 0.320180 1.882833 -0.159508
v 0.457400 1.733279 -0.442614
v -0.457400 1.733279 -0.442614
v -0.000000 0.013178 0.410119
v -0.000000 0.099191 0.691139
v 0.249616 0.239429 0.749700
v -0.000000 0.239429 0.790932
v 0.246736 0.520944 0.754606
v -0.000000 0.520944 0.805704
v 0.240954 0.831641 0.736594
v -0.000000 0.831641 0.773260
v 0.642541 0.154583 -0.282143
v 0.886675 0.449588 0.233831
v 1.085945 0.647835 0.130786
v 0.760162 0.292768 -0.541355
v 0.594927 0.702108 0.807501
v 0.760162 1.002902 0.802926
v 0.592926 1.268462 -0.867642
v 0.847037 1.545414 -0.343372
v 0.592926 1.822366 0.180898
v 1.085945 1.274053 -0.200022
v 0.760162 1.629120 0.472119
v 1.145133 0.960944 -0.034618
v 0.760162 0.918986 -0.872163
v 0.826262 0.575002 -0.765206
v 0.826262 1.346886 0.695969
v -0.000000 1.781291 0.760179
v -0.000000 1.941059 0.405585
v -0.000000 1.512290 1.009079
v -0.000000 1.155073 1.090986
v -0.000000 0.787325 1.023461
v 0.000000 0.409598 -1.078315
v 0.000000 0.140597 -0.829415
v 0.000000 1.149768 -1.092329
v 0.000000 0.766815 -1.160223
v 0.243157 0.015671 0.177302
v 0.000000 0.022576 -0.560029
v 0.326241 0.545431 0.772816
v 0.315789 0.799828 0.742820
v 0.319985 0.816385 0.678320
v 0.330566 0.561988 0.708316
v 0.193581 0.015671 0.026214
v 0.451788 0.099191 -0.130552
v 0.265347 0.538574 0.820260
v 0.256723 0.792971 0.790265
v 0.524052 0.239429 -0.166151
v 0.604048 0.418043 -0.064467
v 0.174114 0.545431 0.822047
v 0.168227 0.799828 0.792051
v 0.000000 0.013311 -0.051691
v -0.000000 0.099191 -0.338402
v 0.121699 0.561988 0.764110
v -0.000000 0.239429 -0.459980
v 0.117384 0.816385 0.734114
v -0.249616 0.239429 0.749700
v -0.246736 0.520944 0.754606
v -0.240954 0.831641 0.736594
v -0.760162 0.292768 -0.541355
v -1.085945 0.647835 0.130785
v -0.886675 0.449588 0.233831
v -0.642541 0.154583 -0.282143
v -0.760162 1.002902 0.802926
v -0.594928 0.702108 0.807501
v -0.847037 1.545414 -0.343372
v -0.592925 1.268462 -0.867642
v -0.592926 1.822366 0.180898
v -0.760162 1.629120 0.472119
v -1.085945 1.274053 -0.200022
v -1.145133 0.960944 -0.034618
v -0.826262 0.575002 -0.765206
v -0.760162 0.918986 -0.872163
v -0.826262 1.346886 0.695969
v -0.243157 0.015671 0.177302
v -0.315789 0.799828 0.742820
v -0.326241 0.545431 0.772816
v -0.330566 0.561988 0.708316
v -0.319985 0.816385 0.678320
v -0.193581 0.015671 0.026214
v -0.451788 0.099191 -0.130552
v -0.265347 0.538574 0.820260
v -0.256724 0.792971 0.790265
v -0.524052 0.239429 -0.166152
v -0.604048 0.418043 -0.064467
v -0.174114 0.545431 0.822047
v -0.168227 0.799828 0.792051
v -0.121699 0.561988 0.764110
v -0.117385 0.816385 0.734114
vn 0.0413 0.6626 -0.7479
vn -0.0000 0.8842 -0.4671
vn 0.2277 0.7307 -0.6436
vn 0.3986 -0.8641 0.3074
vn 0.2346 -0.8216 0.5196
vn 0.0931 -0.9909 0.0967
vn 0.0633 -0.9797 0.1901
vn 0.7582 -0.6219 0.1958
vn 0.3391 -0.5979 0.7263
vn 0.7531 -0.6477 -0.1158
vn 0.0632 -0.9797 0.1901
vn -0.2570 -0.5886 0.7665
vn -0.6871 -0.4647 0.5585
vn -0.2570 -0.5885 0.7665
vn 0.6123 0.0832 0.7862
vn 0.7342 -0.0178 0.6787
vn 0.8908 -0.0090 0.4544
vn 0.9406 -0.3388 -0.0209
vn 0.7560 -0.3884 0.5270
vn 0.6091 -0.7912 0.0536
vn 0.6092 -0.7912 0.0536
vn 0.9686 -0.1932 0.1568
vn 0.8908 -0.0090 0.4543
vn -0.4354 -0.7902 0.4313
vn -0.0990 -0.9889 0.1108
vn -0.1963 -0.7801 0.5941
vn -0.0633 -0.9797 0.1901
vn -0.2016 -0.5923 0.7800
vn -0.6784 -0.6324 0.3739
vn -0.6785 -0.6324 0.3739
vn -0.8473 -0.5253 -0.0780
vn -0.0632 -0.9797 0.1901
vn 0.6272 -0.5889 0.5098
vn 0.4386 -0.5609 0.7022
vn -0.2016 -0.5924 0.7800
vn -0.6792 0.0953 0.7278
vn -0.8908 -0.0090 0.4544
vn -0.7717 -0.0285 0.6353
vn -0.9634 -0.2603 0.0647
vn -0.6558 -0.7534 0.0470
vn -0.7317 -0.3233 0.6001
vn -0.4355 -0.7902 0.4313
vn -0.6559 -0.7534 0.0470
vn -0.9679 -0.1578 0.1956
vn -0.7717 -0.0286 0.6353
vn -0.8908 -0.0090 0.4543
vn 0.0413 0.6626 -0.7478
vn -0.2666 0.6944 -0.6684
vn -0.0413 0.9912 -0.1258
vn -0.2784 0.9303 -0.2387
vn 0.2234 0.9560 -0.1901
vn 0.3738 0.8201 -0.4332
vn 0.2235 0.9560 -0.1901
vn -0.3191 0.8380 -0.4427
vn -0.2785 0.9303 -0.2387
vn 0.2277 0.7307 -0.6435
vn 0.0086 -0.9796 0.2008
vn 0.0037 -0.8155 0.5787
vn 0.0038 -0.8156 0.5786
vn 0.3311 -0.3270 0.8851
vn 0.0120 -0.3246 0.9458
vn 0.3311 -0.3269 0.8851
vn 0.3370 0.0208 0.9413
vn -0.0021 0.0250 0.9997
vn 0.0121 -0.3246 0.9458
vn -0.0022 0.0250 0.9997
vn 0.2850 0.0752 0.9556
vn -0.0682 0.0892 0.9937
vn 0.8807 -0.3902 0.2687
vn 0.4031 -0.8066 0.4323
vn 0.4896 -0.8696 0.0640
vn 0.6181 -0.6786 -0.3968
vn 0.8807 -0.3901 0.2687
vn 0.6297 -0.1028 0.7700
vn 0.3486 -0.6351 0.6893
vn 0.6746 0.6182 -0.4034
vn 0.4205 0.5145 -0.7473
vn 0.5179 0.8555 -0.0040
vn 0.6746 0.6182 -0.4035
vn 0.5179 0.8554 -0.0040
vn 0.5733 0.7336 0.3648
vn 0.9014 0.4243 -0.0867
vn 0.6410 0.0875 -0.7626
vn 0.9014 0.4242 -0.0867
vn 0.9903 -0.0648 -0.1227
vn 0.7200 -0.3241 -0.6136
vn 0.5733 0.7336 0.3649
vn 0.7148 0.3266 0.6184
vn 0.7148 0.3267 0.6184
vn 0.7148 0.3267 0.6183
vn 0.6180 -0.6787 -0.3968
vn 0.0917 0.9729 0.2123
vn 0.0113 0.8131 0.5820
vn -0.1414 0.4624 0.8753
vn 0.1261 0.0207 0.9918
vn 0.1260 0.0207 0.9918
vn 0.0917 0.9729 0.2122
vn -0.0920 -0.4103 0.9073
vn 0.3487 -0.6351 0.6893
vn 0.1414 -0.4624 -0.8753
vn 0.7201 -0.3241 -0.6135
vn -0.1285 -0.8145 -0.5658
vn 0.0211 0.3746 -0.9270
vn -0.1267 -0.0222 -0.9917
vn 0.0211 0.3745 -0.9270
vn 0.6410 0.0875 -0.7625
vn 0.7201 -0.3241 -0.6136
vn -0.1268 -0.0222 -0.9917
vn 0.1705 -0.9850 0.0283
vn 0.1705 -0.9850 0.0282
vn 0.2277 0.7308 -0.6435
vn 0.6180 -0.6786 -0.3968
vn 0.0516 -0.9914 0.1200
vn -0.1285 -0.8144 -0.5659
vn 0.6181 -0.6787 -0.3968
vn 0.9956 0.0504 0.0787
vn 0.7977 0.1013 0.5944
vn 0.8829 -0.1145 0.4554
vn 0.9859 -0.1658 0.0236
vn 0.8829 -0.1144 0.4554
vn 0.9859 -0.1658 0.0235
vn 0.7530 -0.6477 -0.1157
vn 0.1718 -0.9782 -0.1165
vn 0.4998 -0.7858 -0.3644
vn 0.3393 -0.0824 0.9371
vn 0.3391 -0.5980 0.7262
vn 0.3391 -0.5980 0.7263
vn 0.7977 0.1013 0.5945
vn 0.2342 0.1216 0.9646
vn 0.3394 -0.0824 0.9370
vn 0.7752 -0.4603 -0.4327
vn 0.9157 -0.4017 -0.0147
vn 0.7752 -0.4603 -0.4326
vn -0.3883 -0.0576 0.9197
vn -0.2571 -0.5885 0.7665
vn -0.5225 0.0896 0.8479
vn 0.0207 -0.9921 -0.1241
vn 0.0579 -0.8212 -0.5677
vn -0.3884 -0.0577 0.9197
vn -0.7460 -0.0078 0.6659
vn 0.6123 0.0832 0.7863
vn 0.7342 -0.0177 0.6787
vn 0.3312 -0.3270 0.8851
vn 0.7559 -0.3883 0.5270
vn -0.1371 -0.5947 -0.7922
vn 0.4998 -0.7858 -0.3643
vn -0.5225 0.0895 0.8479
vn -0.7405 0.0663 0.6688
vn -0.7460 -0.0079 0.6659
vn 0.7560 -0.3883 0.5270
vn 0.9686 -0.1932 0.1567
vn 0.0038 -0.8156 0.5787
vn 0.0037 -0.8156 0.5787
vn -0.3406 -0.3268 0.8816
vn -0.1962 -0.7801 0.5941
vn -0.3435 0.0190 0.9389
vn -0.3407 -0.3268 0.8816
vn -0.0683 0.0892 0.9937
vn -0.3749 0.0684 0.9246
vn -0.3435 0.0191 0.9389
vn -0.6627 -0.6634 0.3475
vn -0.9135 -0.3891 0.1184
vn -0.6613 -0.7030 -0.2617
vn -0.3419 -0.9388 0.0427
vn -0.6627 -0.6633 0.3475
vn -0.2161 -0.7744 0.5946
vn -0.6355 -0.0995 0.7656
vn -0.9135 -0.3892 0.1184
vn -0.6355 -0.0995 0.7657
vn -0.6212 0.7142 -0.3226
vn -0.4950 0.4002 -0.7712
vn -0.3960 0.9124 0.1037
vn -0.6829 0.6422 0.3482
vn -0.9014 0.3107 -0.3016
vn -0.7148 -0.3267 -0.6184
vn -0.9903 0.0648 0.1227
vn -0.9014 0.3108 -0.3016
vn -0.6337 0.0962 -0.7675
vn -0.7148 -0.3267 -0.6183
vn -0.7200 0.3241 0.6136
vn -0.9136 -0.3891 0.1184
vn -0.7148 -0.3266 -0.6184
vn -0.6612 -0.7030 -0.2617
vn -0.7148 -0.3266 -0.6183
vn -0.6338 0.0962 -0.7675
vn -0.7201 0.3241 0.6135
vn -0.7201 0.3241 0.6136
vn -0.6612 -0.7031 -0.2617
vn -0.1268 -0.0223 -0.9917
vn -0.6337 0.0962 -0.7676
vn -0.2023 -0.9792 -0.0133
vn -0.3419 -0.9387 0.0428
vn -0.1285 -0.8144 -0.5658
vn -0.3420 -0.9387 0.0427
vn -0.9970 -0.0574 0.0515
vn -0.8891 -0.1006 0.4464
vn -0.9379 0.0786 0.3378
vn -0.9957 0.0506 0.0778
vn -0.9970 -0.0574 0.0514
vn -0.8473 -0.5254 -0.0781
vn -0.6785 -0.6323 0.3739
vn -0.8892 -0.1006 0.4464
vn -0.8473 -0.5254 -0.0780
vn -0.4189 -0.8133 -0.4038
vn -0.1074 -0.9853 -0.1331
vn -0.2023 -0.9792 -0.0134
vn -0.2022 -0.9792 -0.0133
vn -0.2016 -0.5923 0.7801
vn -0.3312 -0.0874 0.9395
vn -0.3311 -0.0874 0.9395
vn -0.4338 0.1215 0.8928
vn -0.9379 0.0786 0.3379
vn -0.9565 -0.2382 -0.1686
vn -0.8199 -0.4277 -0.3806
vn 0.4386 -0.5608 0.7022
vn 0.4011 -0.0856 0.9120
vn -0.2016 -0.5924 0.7801
vn 0.2481 0.1079 0.9627
vn 0.0580 -0.8212 -0.5677
vn 0.7243 -0.0910 0.6835
vn 0.4386 -0.5608 0.7023
vn 0.7243 -0.0911 0.6835
vn -0.3435 0.0190 0.9390
vn -0.3748 0.0684 0.9246
vn -0.3436 0.0191 0.9389
vn -0.4355 -0.7901 0.4313
vn -0.3407 -0.3268 0.8815
vn -0.6558 -0.7535 0.0470
vn 0.7358 0.0647 0.6741
vn 0.2482 0.1079 0.9627
vn 0.4031 -0.8067 0.4322
vn 0.4031 -0.8066 0.4322
vt 0.289640 0.043565
vt 0.289640 0.091745
vt 0.328739 0.059306
vt 0.054753 0.386163
vt 0.038639 0.386163
vt 0.038464 0.322260
vt 0.063709 0.067739
vt 0.063709 0.187175
vt 0.026100 0.067739
vt 0.022526 0.980168
vt 0.022526 0.728197
vt 0.058569 0.980168
vt 0.091743 0.531144
vt 0.022526 0.531144
vt 0.022526 0.386163
vt 0.089298 0.728197
vt 0.289640 0.148508
vt 0.328739 0.132767
vt 0.345496 0.096037
vt 0.022414 0.316704
vt 0.057134 0.531144
vt 0.055912 0.728197
vt 0.040548 0.980168
vt 0.670626 0.384408
vt 0.703659 0.243215
vt 0.419014 0.129631
vt 0.294015 0.227887
vt 0.997966 0.499527
vt 0.978626 0.309680
vt 0.351829 0.956257
vt 0.400943 0.863518
vt 0.141484 0.726803
vt 0.211721 0.882430
vt 0.520833 0.984375
vt 0.661458 0.984375
vt 0.744389 0.992613
vt 0.908866 0.840435
vt 0.541527 0.737164
vt 0.482826 0.950498
vt 0.126694 0.622031
vt 0.615632 0.550439
vt 0.170612 0.369854
vt 0.971771 0.680939
vt 0.204260 0.846649
vt 0.562534 0.711534
vt 0.562534 0.544337
vt 0.935638 0.553543
vt 0.853555 0.718715
vt 0.562534 0.356538
vt 0.968082 0.366545
vt 0.562534 0.174077
vt 0.935638 0.183283
vt 0.719685 0.837501
vt 0.562534 0.833623
vt 0.562534 0.045066
vt 0.818794 0.015220
vt 0.562534 0.423249
vt 0.968082 0.413242
vt 0.935638 0.226244
vt 0.562534 0.235450
vt 0.562534 0.759406
vt 0.853555 0.752225
vt 0.935638 0.596505
vt 0.562534 0.605711
vt 0.022423 0.322260
vt 0.037789 0.319613
vt 0.562534 0.859474
vt 0.719685 0.855596
vt 0.818794 0.048730
vt 0.562534 0.092937
vt 0.026100 0.187175
vt 0.022321 0.258929
vt 0.039285 0.325479
vt 0.039336 0.386163
vt 0.039238 0.325296
vt 0.040436 0.386163
vt 0.353397 0.122440
vt 0.289640 0.088997
vt 0.353397 0.258478
vt 0.375780 0.196181
vt 0.289640 0.283337
s 0
usemtl mushroom
f 3/1/1 2/2/2 1/3/3
f 6/4/4 5/5/5 4/6/6
f 9/7/7 8/8/8 7/9/9
f 9/7/7 10/8/10 8/9/8
f 9/7/11 12/8/12 11/9/13
f 9/7/7 7/8/9 12/9/14
f 15/10/15 14/11/16 13/12/17
f 18/13/18 17/14/19 16/4/20
f 6/15/4 16/4/21 17/14/19
f 19/16/22 13/12/23 14/11/16
f 22/4/24 21/6/25 20/5/26
f 25/7/27 24/9/28 23/8/29
f 25/7/27 23/9/30 26/8/31
f 25/7/32 28/9/33 27/8/34
f 25/7/27 27/9/34 24/8/35
f 31/10/36 30/12/37 29/11/38
f 34/13/39 33/4/40 32/14/41
f 22/15/42 32/14/41 33/4/43
f 35/16/44 29/11/45 30/12/46
f 3/1/47 36/3/48 2/2/2
f 38/17/49 2/2/2 37/18/50
f 38/17/49 39/18/51 2/2/2
f 40/19/52 2/2/2 39/18/53
f 41/19/54 2/2/2 36/3/48
f 41/19/54 37/18/55 2/2/2
f 40/19/52 1/3/56 2/2/2
f 42/20/57 4/6/6 5/5/5
f 43/15/58 42/20/57 5/5/5
f 43/15/59 5/5/5 44/21/60
f 45/14/61 43/15/58 44/21/60
f 45/14/61 44/21/62 46/22/63
f 47/11/64 45/14/65 46/22/63
f 47/11/66 46/22/63 48/23/67
f 49/10/68 47/11/66 48/23/67
f 52/24/69 51/25/70 50/26/71
f 53/27/72 52/24/69 50/26/71
f 52/24/73 55/28/74 54/29/75
f 51/25/70 52/24/69 54/29/75
f 40/30/52 57/31/76 56/32/77
f 1/33/3 40/30/52 56/32/77
f 40/30/52 39/34/53 58/35/78
f 57/31/79 40/30/52 58/35/80
f 58/36/80 60/37/81 59/38/82
f 57/39/76 58/36/80 59/38/82
f 62/40/83 59/38/84 61/41/85
f 63/42/86 62/40/83 61/41/85
f 59/38/82 60/37/87 64/43/88
f 61/41/85 59/38/82 64/43/89
f 64/43/90 55/28/74 52/24/69
f 61/41/85 64/43/89 52/24/73
f 61/41/85 52/24/73 53/27/91
f 63/42/86 61/41/85 53/27/72
f 57/39/76 59/38/84 62/40/83
f 56/44/77 57/39/76 62/40/83
f 66/45/92 65/46/93 60/47/81
f 58/48/80 66/45/92 60/47/81
f 65/46/93 67/49/94 64/50/88
f 60/47/87 65/46/93 64/50/88
f 64/50/89 67/49/94 68/51/95
f 55/52/74 64/50/89 68/51/96
f 39/53/53 38/54/49 66/45/97
f 58/48/78 39/53/53 66/45/97
f 68/51/95 69/55/98 54/56/99
f 55/52/74 68/51/96 54/56/99
f 70/57/100 63/58/101 53/59/72
f 71/60/102 70/57/100 53/59/91
f 72/61/103 56/62/77 62/63/83
f 73/64/104 72/61/105 62/63/83
f 62/63/106 63/58/107 70/57/100
f 73/64/108 62/63/106 70/57/100
f 6/15/4 4/65/6 74/66/109
f 16/4/21 6/15/4 74/66/110
f 3/67/47 1/68/111 56/62/77
f 72/61/103 3/67/47 56/62/77
f 53/59/112 50/69/71 75/70/113
f 71/60/114 53/59/115 75/70/113
f 78/8/116 77/71/117 76/9/118
f 79/7/119 78/8/116 76/9/120
f 79/8/121 76/71/120 8/9/8
f 10/7/122 79/8/119 8/9/8
f 16/72/21 74/73/110 80/74/123
f 81/15/124 16/72/21 80/74/123
f 76/8/120 82/71/125 7/9/126
f 8/7/8 76/8/120 7/9/127
f 77/8/128 83/71/129 82/9/125
f 76/7/120 77/8/128 82/9/130
f 19/11/22 18/14/18 84/13/131
f 85/16/132 19/11/22 84/13/133
f 82/8/130 86/71/134 12/9/12
f 7/7/127 82/8/130 12/9/135
f 83/8/129 87/71/136 86/9/134
f 82/7/125 83/8/129 86/9/134
f 81/72/124 80/75/123 88/76/137
f 89/15/138 81/72/124 88/76/137
f 86/8/139 90/71/140 11/9/13
f 12/7/12 86/8/134 11/9/13
f 15/12/141 48/23/67 46/22/63
f 14/16/142 15/12/141 46/22/63
f 14/16/142 46/22/63 44/21/62
f 17/13/19 14/16/16 44/21/143
f 17/13/144 44/21/60 5/5/5
f 6/4/4 17/13/19 5/5/5
f 84/14/133 81/15/124 89/4/138
f 91/13/145 84/14/133 89/4/138
f 18/14/18 16/15/21 81/4/146
f 84/13/131 18/14/18 81/4/146
f 87/8/147 92/71/148 90/9/140
f 86/7/134 87/8/136 90/9/149
f 17/14/150 18/13/18 19/16/22
f 14/11/16 17/14/19 19/16/151
f 43/15/152 20/5/26 21/6/25
f 42/20/57 43/15/153 21/6/25
f 45/14/61 93/21/154 20/5/26
f 43/15/153 45/14/61 20/5/155
f 47/11/66 94/22/156 93/21/157
f 45/14/61 47/11/66 93/21/154
f 49/10/158 95/23/159 94/22/156
f 47/11/64 49/10/158 94/22/160
f 98/25/161 97/24/162 96/27/163
f 99/26/164 98/25/161 96/27/163
f 98/25/165 101/29/166 100/28/167
f 97/24/168 98/25/165 100/28/169
f 102/31/170 41/30/54 36/33/48
f 103/32/171 102/31/170 36/33/48
f 102/31/170 104/35/172 37/34/55
f 41/30/54 102/31/170 37/34/55
f 105/37/173 104/36/172 102/39/170
f 106/38/174 105/37/173 102/39/170
f 108/42/175 107/41/176 106/38/177
f 109/40/178 108/42/179 106/38/177
f 107/41/176 110/43/180 105/37/173
f 106/38/174 107/41/176 105/37/173
f 100/28/169 110/43/180 107/41/176
f 97/24/181 100/28/169 107/41/176
f 97/24/162 107/41/176 108/42/182
f 96/27/183 97/24/162 108/42/184
f 106/38/177 102/39/170 103/44/171
f 109/40/185 106/38/174 103/44/171
f 65/46/93 66/45/92 104/48/172
f 105/47/173 65/46/93 104/48/172
f 99/77/164 75/78/113 101/79/166
f 98/80/161 99/77/164 101/79/166
f 67/49/94 65/46/93 105/47/173
f 110/50/186 67/49/94 105/47/173
f 100/52/169 68/51/95 67/49/94
f 110/50/187 100/52/169 67/49/94
f 104/48/172 66/45/97 38/54/49
f 37/53/55 104/48/172 38/54/49
f 69/55/98 68/51/96 100/52/169
f 101/56/166 69/55/98 100/52/167
f 71/60/114 96/59/188 108/58/182
f 70/57/100 71/60/114 108/58/182
f 73/64/189 109/63/190 103/62/171
f 72/61/103 73/64/104 103/62/171
f 108/58/175 109/63/178 73/64/189
f 70/57/100 108/58/175 73/64/108
f 33/4/40 111/66/191 21/65/25
f 22/15/42 33/4/40 21/65/25
f 72/61/105 103/62/171 36/68/48
f 3/67/47 72/61/103 36/68/48
f 99/69/192 96/59/183 71/60/193
f 75/70/113 99/69/194 71/60/102
f 114/7/195 113/9/196 112/71/197
f 115/8/198 114/7/199 112/71/197
f 26/7/200 23/9/201 113/71/202
f 114/8/195 26/7/203 113/71/202
f 117/15/204 116/74/205 111/73/206
f 33/72/40 117/15/204 111/73/207
f 23/7/29 24/9/208 118/71/209
f 113/8/202 23/7/30 118/71/210
f 113/7/202 118/9/210 119/71/211
f 112/8/212 113/7/196 119/71/211
f 121/16/213 120/13/214 34/14/39
f 35/11/44 121/16/213 34/14/39
f 24/7/35 27/9/215 122/71/216
f 118/8/209 24/7/217 122/71/216
f 118/7/209 122/9/216 123/71/218
f 119/8/211 118/7/209 123/71/218
f 89/15/219 88/76/137 116/75/205
f 117/72/204 89/15/138 116/75/205
f 27/7/215 28/9/33 124/71/220
f 122/8/216 27/7/221 124/71/222
f 29/16/38 94/22/223 95/23/224
f 31/12/36 29/16/38 95/23/159
f 32/13/41 93/21/154 94/22/225
f 29/16/45 32/13/41 94/22/225
f 22/4/226 20/5/26 93/21/227
f 32/13/41 22/4/42 93/21/227
f 74/66/110 4/6/6 88/76/137
f 80/74/123 74/66/110 88/76/137
f 91/13/145 89/4/138 117/15/204
f 120/14/214 91/13/145 117/15/204
f 120/13/214 117/4/204 33/15/228
f 34/14/39 120/13/214 33/15/40
f 122/7/216 124/9/222 125/71/229
f 123/8/230 122/7/216 125/71/229
f 29/11/38 35/16/44 34/13/39
f 32/14/41 29/11/38 34/13/39
f 116/75/205 88/76/137 21/65/25
f 111/73/191 116/75/205 21/65/25
f 21/65/25 88/76/137 4/6/6
f 42/20/57 21/65/25 4/6/6
f 51/80/231 54/79/99 75/78/113
f 50/77/71 51/80/232 75/78/113
f 101/79/166 75/78/113 54/79/75
f 69/81/98 101/79/166 54/79/99
